<?xml version="1.0" encoding="UTF-8" standalone="no"?>
<svg
   xmlns:dc="http://purl.org/dc/elements/1.1/"
   xmlns:cc="http://creativecommons.org/ns#"
   xmlns:rdf="http://www.w3.org/1999/02/22-rdf-syntax-ns#"
   xmlns:svg="http://www.w3.org/2000/svg"
   xmlns="http://www.w3.org/2000/svg"
   viewBox="0 0 1033.4653 224.65466"
   height="224.65466"
   width="1033.4653"
   xml:space="preserve"
   id="svg2"
   version="1.1">
   <defs id="defs6"><clipPath
       id="clipPath18"
       clipPathUnits="userSpaceOnUse"><path
         id="path16"
         d="M 0,168.491 H 775.099 V 0 H 0 Z" /></clipPath></defs><g
     transform="matrix(1.3333333,0,0,-1.3333333,0,224.65467)"
     id="g10"><g
       id="g12"><g
         clip-path="url(#clipPath18)"
         id="g14"><g
           transform="translate(345.5078,101.5841)"
           id="g20"><path
             id="path22"
             style="fill:#fff;fill-opacity:1;fill-rule:nonzero;stroke:none"
             d="m 0,0 -1.065,-18.521 c -12.57,5.996 -19.842,-1.491 -19.842,-8.641 v -30.809 h -18.195 v 57.026 h 17.44 V -7.514 C -18.35,-1.933 -10.775,2.161 0,0" /></g><g
           transform="translate(369.2842,72.1261)"
           id="g24"><path
             id="path26"
             style="fill:#fff;fill-opacity:1;fill-rule:nonzero;stroke:none"
             d="m 0,0 c 0,-7.672 5.881,-13.051 12.973,-13.051 7.151,0 13.034,5.379 13.034,13.051 0,7.674 -5.883,13.108 -13.034,13.108 C 5.881,13.108 0,7.674 0,0 m 43.957,0.029 c 0,-17.264 -13.107,-30.984 -30.954,-30.984 -17.847,0 -30.955,13.72 -30.955,30.984 0,17.265 13.108,30.926 30.955,30.926 17.847,0 30.954,-13.661 30.954,-30.926" /></g><g
           transform="translate(612.3857,72.1261)"
           id="g28"><path
             id="path30"
             style="fill:#fff;fill-opacity:1;fill-rule:nonzero;stroke:none"
             d="m 0,0 c 0,-7.672 5.883,-13.051 12.974,-13.051 7.15,0 13.033,5.379 13.033,13.051 0,7.674 -5.883,13.108 -13.033,13.108 C 5.883,13.108 0,7.674 0,0 m 43.958,0.029 c 0,-17.264 -13.109,-30.984 -30.953,-30.984 -17.847,0 -30.956,13.72 -30.956,30.984 0,17.265 13.109,30.926 30.956,30.926 17.844,0 30.953,-13.661 30.953,-30.926" /></g><g
           transform="translate(498.166,100.6393)"
           id="g32"><path
             id="path34"
             style="fill:#fff;fill-opacity:1;fill-rule:nonzero;stroke:none"
             d="M 0,0 H 19.126 L -0.522,-57.026 h -20.289 l -11.102,34.121 -10.986,-34.121 H -63.071 L -82.776,0 H -63.42 L -52.433,-36.216 -40.923,0 h 18.194 l 11.626,-36.39 z" /></g><g
           transform="translate(541.9287,72.1261)"
           id="g36"><path
             id="path38"
             style="fill:#fff;fill-opacity:1;fill-rule:nonzero;stroke:none"
             d="m 0,0 c 0,-7.556 6.162,-13.051 13.313,-13.051 7.324,0 13.029,5.61 13.029,13.051 0,7.441 -5.705,13.108 -13.029,13.108 C 6.162,13.108 0,7.557 0,0 m 44.237,0.087 c 0,-16.915 -11.336,-30.111 -26.565,-30.111 -7.733,0 -12.847,3.14 -16.334,7.615 v -6.104 H -16.217 V 55.194 H 1.918 V 23.047 c 3.488,4.186 8.372,7.034 15.754,7.034 15.229,0 26.565,-13.253 26.565,-29.994" /></g><g
           transform="translate(691.458,84.5363)"
           id="g40"><path
             id="path42"
             style="fill:#fff;fill-opacity:1;fill-rule:nonzero;stroke:none"
             d="m 0,0 v -16.682 c 0,-6.571 3.487,-8.779 8.08,-8.779 3.43,0 7.034,1.86 9.882,3.547 l 6.278,-14.184 c -5.405,-3.662 -10.986,-6.337 -20.229,-6.337 -15.346,0 -22.205,9.184 -22.205,23.427 V 0 h -10.638 v 16.103 h 10.638 V 32.728 H 0 V 16.103 H 19.473 L 19.473,0 Z" /></g><g
           transform="translate(749.6953,87.5006)"
           id="g44"><path
             id="path46"
             style="fill:#fff;fill-opacity:1;fill-rule:nonzero;stroke:none"
             d="m 0,0 c -4.824,0 -6.627,-1.394 -6.627,-3.487 0,-2.442 3.606,-2.966 9.185,-3.895 l 4.186,-0.639 c 12.265,-1.859 18.659,-7.616 18.659,-17.323 0,-12.497 -9.765,-19.997 -26.391,-19.997 -9.766,0 -19.823,1.803 -26.333,5.989 l 6.336,14.066 c 5.756,-3.43 12.15,-5.349 20.114,-5.349 5.639,0 7.964,1.221 7.964,3.721 0,2.152 -2.558,3.081 -9.011,4.069 l -3.313,0.465 c -13.777,2.035 -20.113,7.673 -20.113,17.963 0,12.089 9.068,19.067 24.646,19.067 9.244,0 15.173,-1.279 24.533,-4.883 L 18.777,-4.417 C 13.195,-2.091 5.813,0 0,0" /></g><g
           transform="translate(262.6328,88.7599)"
           id="g48"><path
             id="path50"
             style="fill:#fff;fill-opacity:1;fill-rule:nonzero;stroke:none"
             d="m 0,0 v -14 h 14 v -8.707 c -4,-3.642 -9.312,-5.722 -16.385,-5.722 -12.09,0 -24.758,8.445 -24.758,24.022 0,14.184 11.622,24.255 24.642,24.255 8.065,-0.2 14.336,-4.496 17.108,-7.734 l 12.768,12.554 c -7.148,7.44 -18.895,13.08 -29.009,13.08 -25.345,0 -45.196,-17.47 -45.196,-42.174 0,-25.345 20.753,-42.174 44.935,-42.174 12.832,0 24.895,5.818 32.895,15.263 L 31,0 Z" /></g><g
           transform="translate(84.2461,70.2902)"
           id="g52"><path
             id="path54"
             style="fill:#fff;fill-opacity:1;fill-rule:nonzero;stroke:none"
             d="m 0,0 c -7.693,0 -13.954,6.263 -13.954,13.956 0,7.695 6.261,13.954 13.954,13.954 7.695,0 13.956,-6.259 13.956,-13.954 C 13.956,6.263 7.695,0 0,0 M 83.423,25.775 35.671,25.781 C 30.7,40.735 16.604,51.558 0,51.558 c -20.732,0 -37.604,-16.868 -37.604,-37.602 0,-20.733 16.872,-37.605 37.604,-37.605 16.604,0 30.699,10.827 35.671,25.781 H 59.433 C 53.914,-25.64 29.368,-46.643 0,-46.643 c -33.412,0 -60.597,27.187 -60.597,60.599 0,33.414 27.185,60.597 60.597,60.597 16.187,0 31.404,-6.3 42.852,-17.749 L 59.573,73.525 C 43.659,89.439 22.503,98.201 0,98.201 c -46.453,0 -84.246,-37.792 -84.246,-84.245 0,-46.453 37.793,-84.246 84.246,-84.246 46.453,0 84.248,37.793 84.248,84.246 0,3.952 -0.278,7.921 -0.825,11.819" /></g></g></g></g></svg>